<?xml version="1.0" encoding="iso-8859-1"?>
<!-- Generator: Adobe Illustrator 19.0.0, SVG Export Plug-In . SVG Version: 6.00 Build 0)  -->
<svg xmlns="http://www.w3.org/2000/svg" xmlns:xlink="http://www.w3.org/1999/xlink" version="1.1" id="Layer_1" x="0px" y="0px" viewBox="0 0 300.24 300.24" style="enable-background:new 0 0 300.24 300.24;" xml:space="preserve" width="512px" height="512px">
<g>
	<g>
		<g>
			<path d="M264.328,16.68H47.827c-12.404,0-25.587,7.017-25.587,20.016V83.4H5.56C2.485,83.4,0,85.885,0,88.96     c0,3.075,2.485,5.56,5.56,5.56h16.68v22.24H5.56c-3.075,0-5.56,2.485-5.56,5.56c0,3.075,2.485,5.56,5.56,5.56h16.68v22.24H5.56     c-3.075,0-5.56,2.485-5.56,5.56c0,3.075,2.485,5.56,5.56,5.56h16.68v22.24H5.56c-3.075,0-5.56,2.485-5.56,5.56     c0,3.075,2.485,5.56,5.56,5.56h16.68v22.24H5.56c-3.075,0-5.56,2.485-5.56,5.56c0,3.075,2.485,5.56,5.56,5.56h16.68v30.452     c0,12.454,12.916,25.148,25.587,25.148h216.501c22.479,0,35.912-21.095,35.912-41.483V53.026     C300.24,31.625,285.473,16.68,264.328,16.68z M289.12,242.077c0,14.934-9.274,30.363-24.792,30.363H47.827     c-6.483,0-14.467-7.734-14.467-14.028V227.96h16.68c3.075,0,5.56-2.485,5.56-5.56c0-3.075-2.485-5.56-5.56-5.56H33.36V194.6     h16.68c3.075,0,5.56-2.485,5.56-5.56c0-3.075-2.485-5.56-5.56-5.56H33.36v-22.24h16.68c3.075,0,5.56-2.485,5.56-5.56     c0-3.075-2.485-5.56-5.56-5.56H33.36v-22.24h16.68c3.075,0,5.56-2.485,5.56-5.56c0-3.075-2.485-5.56-5.56-5.56H33.36V94.52h16.68     c3.075,0,5.56-2.485,5.56-5.56c0-3.075-2.485-5.56-5.56-5.56H33.36V36.696c0-6.066,8.635-8.896,14.467-8.896h216.501     c15.062,0,24.792,9.902,24.792,25.226V242.077z" fill="#fafafa"/>
			<path d="M233.248,105.64h-15.084l-5.821-8.668c-1.034-1.529-2.769-2.452-4.615-2.452h-37.313c-1.902,0-3.659,0.967-4.682,2.558     l-5.493,8.562H139h-11.12h-21.523c-14.929,0-28.517,14.361-28.517,30.135v59.709c0,14.712,12.727,32.476,28.517,32.476h126.89     c15.551,0,22.512-16.313,22.512-32.476v-59.709C255.76,117.472,246.92,105.64,233.248,105.64z M244.64,195.484     c0,7.384-2.38,21.356-11.392,21.356h-126.89c-8.957,0-17.397-12.032-17.397-21.356v-59.709c0-9.597,8.618-19.015,17.397-19.015     h21.523H139h24.281c1.896,0,3.658-0.967,4.682-2.558l5.493-8.562h31.308l5.832,8.668c1.029,1.529,2.758,2.452,4.615,2.452h18.037     c10.575,0,11.392,14.551,11.392,19.015V195.484z" fill="#fafafa"/>
			<path d="M189.04,122.32c-21.456,0-38.926,17.464-38.926,38.926c0,21.456,17.47,38.914,38.926,38.914     c21.456,0,38.914-17.458,38.914-38.914C227.954,139.784,210.496,122.32,189.04,122.32z M189.04,189.04     c-15.334,0-27.806-12.466-27.806-27.794c0-15.334,12.471-27.806,27.806-27.806c15.329,0,27.794,12.471,27.794,27.806     C216.834,176.574,204.369,189.04,189.04,189.04z" fill="#fafafa"/>
			<path d="M116.76,133.44c-3.075,0-5.56,2.485-5.56,5.56v55.6c0,3.075,2.485,5.56,5.56,5.56c3.075,0,5.56-2.485,5.56-5.56V139     C122.32,135.925,119.835,133.44,116.76,133.44z" fill="#fafafa"/>
		</g>
	</g>
</g>
<g>
</g>
<g>
</g>
<g>
</g>
<g>
</g>
<g>
</g>
<g>
</g>
<g>
</g>
<g>
</g>
<g>
</g>
<g>
</g>
<g>
</g>
<g>
</g>
<g>
</g>
<g>
</g>
<g>
</g>
</svg>
